<svg width="32" height="32" viewBox="0 0 32 32" fill="none" xmlns="http://www.w3.org/2000/svg">
  <defs>
    <linearGradient id="gradient" x1="0%" y1="0%" x2="100%" y2="100%">
      <stop offset="0%" style="stop-color:#1E5BFF"/>
      <stop offset="100%" style="stop-color:#00B7FF"/>
    </linearGradient>
  </defs>
  <rect width="32" height="32" rx="8" fill="url(#gradient)"/>
  <path d="M16 6C10.477 6 6 10.477 6 16C6 21.523 10.477 26 16 26C21.523 26 26 21.523 26 16C26 10.477 21.523 6 16 6ZM16 8C20.418 8 24 11.582 24 16C24 20.418 20.418 24 16 24C11.582 24 8 20.418 8 16C8 11.582 11.582 8 16 8ZM12 14C12 14.552 12.448 15 13 15H19C19.552 15 20 14.552 20 14C20 13.448 19.552 13 19 13H13C12.448 13 12 13.448 12 14ZM11 18C11 18.552 11.448 19 12 19H20C20.552 19 21 18.552 21 18C21 17.448 20.552 17 20 17H12C11.448 17 11 17.448 11 18Z" fill="white"/>
</svg>
